<svg width="256" height="256" viewBox="0 0 256 256" fill="none" xmlns="http://www.w3.org/2000/svg">
<path d="M43.9205 139.224C47.0245 139.224 49.8085 137.432 51.1205 134.648L48.6565 133.592C47.7925 135.416 45.8725 136.696 43.9205 136.696C41.0725 136.696 38.7045 134.296 38.7045 131.416C38.7045 128.536 41.0725 126.072 43.9205 126.072C45.8725 126.072 47.7925 127.384 48.6565 129.208L51.1205 128.152C49.8085 125.368 47.0245 123.576 43.9205 123.576C39.5685 123.576 35.9845 127.096 35.9845 131.416C35.9845 135.704 39.5685 139.224 43.9205 139.224ZM52.7375 134.424C52.7375 137.4 55.3295 139.224 58.4015 139.224C60.9935 139.224 62.4975 138.328 63.6495 137.272V139H66.2735V129.144C66.2735 127.672 65.6975 126.296 64.7055 125.304C63.3615 124.088 61.2815 123.608 59.3615 123.608C56.8015 123.608 54.7855 124.472 52.7375 126.04L54.3055 128.12C55.8735 126.936 57.3775 126.2 59.3295 126.2C61.4095 126.2 63.6495 126.776 63.6495 129.272V129.336C63.1695 129.752 62.2415 129.848 61.6975 129.848H57.9855C55.0095 129.848 52.7375 131.512 52.7375 134.424ZM55.4255 134.392C55.4255 132.952 56.6735 132.376 58.1135 132.376H61.7295C62.3375 132.376 63.0415 132.312 63.6495 132.12C63.4575 135.192 61.4415 136.696 58.5295 136.696C56.8015 136.696 55.4255 135.768 55.4255 134.392ZM70.24 139H72.992V126.488H79.776V139H82.528V126.488H89.312V139H92.064V123.832H70.24V139ZM102.921 139.256C106.057 139.256 108.713 137.912 110.601 135.64L108.521 134.008C107.113 135.768 105.161 136.792 102.921 136.792C101.545 136.792 100.201 136.248 99.2405 135.288L110.185 128.472C108.937 125.464 106.217 123.512 102.921 123.512C98.5365 123.512 94.9845 127.032 94.9845 131.384C94.9845 135.768 98.5045 139.256 102.921 139.256ZM97.6085 131.352C97.6085 128.344 99.9765 125.944 102.921 125.944C104.489 125.944 106.057 126.648 106.569 127.768L97.8965 133.08C97.6725 132.504 97.6085 131.96 97.6085 131.352ZM112.703 139H115.423V130.84L124.447 125.528L123.103 123.256L115.423 127.832V123.832H112.703V139ZM124.55 134.424C124.55 137.4 127.142 139.224 130.214 139.224C132.806 139.224 134.31 138.328 135.462 137.272V139H138.086V129.144C138.086 127.672 137.51 126.296 136.518 125.304C135.174 124.088 133.094 123.608 131.174 123.608C128.614 123.608 126.598 124.472 124.55 126.04L126.118 128.12C127.686 126.936 129.19 126.2 131.142 126.2C133.222 126.2 135.462 126.776 135.462 129.272V129.336C134.982 129.752 134.054 129.848 133.51 129.848H129.798C126.822 129.848 124.55 131.512 124.55 134.424ZM127.238 134.392C127.238 132.952 128.486 132.376 129.926 132.376H133.542C134.15 132.376 134.854 132.312 135.462 132.12C135.27 135.192 133.254 136.696 130.342 136.696C128.614 136.696 127.238 135.768 127.238 134.392ZM145.093 139.096C146.533 139.096 147.717 137.912 147.717 136.472C147.717 135.032 146.533 133.848 145.093 133.848C143.621 133.848 142.437 135.032 142.437 136.472C142.437 137.912 143.621 139.096 145.093 139.096ZM152.584 139H160.776V136.376H155.336V125.176H160.776V122.52H155.336V116.6H152.584V139ZM169.671 139.224C174.119 139.224 177.575 135.736 177.575 131.416C177.575 127.096 174.119 123.608 169.671 123.608C165.191 123.608 161.735 127.096 161.735 131.416C161.735 135.736 165.191 139.224 169.671 139.224ZM164.519 131.416C164.519 128.472 166.855 126.136 169.671 126.136C172.455 126.136 174.791 128.472 174.791 131.416C174.791 134.328 172.455 136.696 169.671 136.696C166.855 136.696 164.519 134.328 164.519 131.416ZM187.546 139.224C191.994 139.224 195.45 135.736 195.45 131.416C195.45 127.096 191.994 123.608 187.546 123.608C183.066 123.608 179.61 127.096 179.61 131.416C179.61 135.736 183.066 139.224 187.546 139.224ZM182.394 131.416C182.394 128.472 184.73 126.136 187.546 126.136C190.33 126.136 192.666 128.472 192.666 131.416C192.666 134.328 190.33 136.696 187.546 136.696C184.73 136.696 182.394 134.328 182.394 131.416ZM198.493 139H203.965V136.376H201.245V116.6H198.493V139ZM213.035 139.416C217.931 139.416 219.627 136.92 219.627 134.584C219.627 132.856 218.827 131.608 217.131 130.808C215.915 130.2 214.411 130.008 212.971 129.816C209.995 129.368 208.971 129.016 208.939 127.928C208.907 126.584 210.411 125.976 212.299 125.976C214.603 125.976 216.171 126.52 216.299 127.416H218.923C218.859 126.136 218.187 125.08 216.971 124.376C215.851 123.704 214.251 123.352 212.299 123.352C208.939 123.352 206.155 124.856 206.155 127.864C206.155 128.92 206.507 130.584 208.651 131.448C209.835 131.992 211.179 132.184 212.587 132.376C216.011 132.888 216.779 133.304 216.779 134.648C216.779 136.088 215.499 136.792 213.035 136.792C209.259 136.792 208.619 135.352 208.555 134.616H205.931C205.995 135.992 206.603 137.176 207.691 138.008C208.939 138.936 210.731 139.416 213.035 139.416Z" fill="white"/>
</svg>
