<svg width="256" height="256" viewBox="0 0 256 256" fill="none" xmlns="http://www.w3.org/2000/svg">
<path d="M72.012 139.352C71.4147 139.352 70.8493 139.256 70.316 139.064C69.7827 138.893 69.292 138.637 68.844 138.296C68.4173 137.955 68.0333 137.549 67.692 137.08L66.892 139H65.42V117.72H67.724H68.044V117.944C67.916 118.072 67.8307 118.211 67.788 118.36C67.7667 118.509 67.756 118.765 67.756 119.128V126.616C67.9907 126.232 68.268 125.88 68.588 125.56C68.908 125.24 69.26 124.963 69.644 124.728C70.028 124.493 70.4333 124.323 70.86 124.216C71.2867 124.088 71.7027 124.024 72.108 124.024C73.004 124.024 73.8147 124.184 74.54 124.504C75.2867 124.803 75.9267 125.272 76.46 125.912C76.9933 126.531 77.3987 127.309 77.676 128.248C77.9747 129.187 78.124 130.285 78.124 131.544C78.124 132.845 77.9533 133.987 77.612 134.968C77.2707 135.949 76.8013 136.771 76.204 137.432C75.628 138.072 74.9773 138.552 74.252 138.872C73.5267 139.192 72.78 139.352 72.012 139.352ZM71.724 137.304C72.236 137.304 72.7267 137.208 73.196 137.016C73.6867 136.824 74.124 136.515 74.508 136.088C74.892 135.64 75.1907 135.053 75.404 134.328C75.6387 133.603 75.756 132.717 75.756 131.672C75.756 130.712 75.66 129.88 75.468 129.176C75.276 128.451 74.9987 127.853 74.636 127.384C74.2947 126.915 73.8787 126.573 73.388 126.36C72.8973 126.125 72.364 126.008 71.788 126.008C70.9987 126.008 70.2947 126.253 69.676 126.744C69.0787 127.213 68.6093 127.885 68.268 128.76C67.9267 129.613 67.756 130.605 67.756 131.736C67.756 132.568 67.8307 133.325 67.98 134.008C68.1293 134.691 68.3533 135.277 68.652 135.768C68.972 136.259 69.3773 136.643 69.868 136.92C70.38 137.176 70.9987 137.304 71.724 137.304ZM82.7 139V137.144H86.444V126.232H82.892V124.376H88.748V137.144H92.172V139H82.7ZM87.468 121.304C87.02 121.304 86.636 121.144 86.316 120.824C85.996 120.504 85.836 120.12 85.836 119.672C85.836 119.203 85.9853 118.808 86.284 118.488C86.604 118.168 86.9987 118.008 87.468 118.008C87.916 118.008 88.3 118.179 88.62 118.52C88.9613 118.84 89.132 119.224 89.132 119.672C89.132 120.12 88.9613 120.504 88.62 120.824C88.3 121.144 87.916 121.304 87.468 121.304ZM101.868 131.672L99.948 133.464V139H97.612V117.72H99.916H100.236V117.944C100.108 118.072 100.023 118.211 99.98 118.36C99.9587 118.509 99.948 118.765 99.948 119.128V131.096L107.276 124.312C107.404 124.333 107.532 124.355 107.66 124.376C107.788 124.397 107.916 124.419 108.044 124.44C108.193 124.44 108.343 124.451 108.492 124.472C108.663 124.472 108.823 124.472 108.972 124.472H109.804L103.66 130.264L110.828 139L107.852 139.128L101.868 131.672ZM120.62 139.352C119.553 139.352 118.572 139.16 117.676 138.776C116.78 138.392 116.001 137.859 115.34 137.176C114.7 136.493 114.199 135.693 113.836 134.776C113.473 133.837 113.292 132.813 113.292 131.704C113.292 130.616 113.473 129.613 113.836 128.696C114.199 127.757 114.7 126.947 115.34 126.264C116.001 125.581 116.78 125.048 117.676 124.664C118.572 124.28 119.543 124.088 120.588 124.088C121.783 124.088 122.849 124.333 123.788 124.824C124.748 125.293 125.527 125.955 126.124 126.808L124.684 128.216L124.46 128.44L124.3 128.28C124.3 128.109 124.257 127.949 124.172 127.8C124.108 127.651 123.948 127.448 123.692 127.192C123.223 126.765 122.721 126.467 122.188 126.296C121.655 126.125 121.036 126.04 120.332 126.04C119.713 126.04 119.127 126.168 118.572 126.424C118.017 126.68 117.516 127.053 117.068 127.544C116.641 128.013 116.3 128.589 116.044 129.272C115.788 129.955 115.66 130.712 115.66 131.544C115.66 132.376 115.788 133.144 116.044 133.848C116.3 134.531 116.652 135.128 117.1 135.64C117.548 136.152 118.081 136.557 118.7 136.856C119.34 137.133 120.023 137.272 120.748 137.272C121.239 137.272 121.708 137.208 122.156 137.08C122.604 136.931 123.031 136.728 123.436 136.472C123.841 136.195 124.215 135.864 124.556 135.48L125.9 137.048C125.175 137.816 124.364 138.392 123.468 138.776C122.593 139.16 121.644 139.352 120.62 139.352ZM131.308 124.376H133.708L133.612 128.632L133.324 128.152C133.452 127.491 133.676 126.904 133.996 126.392C134.316 125.88 134.7 125.453 135.148 125.112C135.596 124.749 136.087 124.483 136.62 124.312C137.153 124.12 137.708 124.024 138.284 124.024C139.052 124.024 139.756 124.163 140.396 124.44C141.057 124.696 141.644 125.091 142.156 125.624L141.132 127.416L141.004 127.704L140.78 127.576C140.737 127.405 140.673 127.245 140.588 127.096C140.503 126.947 140.321 126.765 140.044 126.552C139.703 126.339 139.383 126.2 139.084 126.136C138.807 126.051 138.487 126.008 138.124 126.008C137.591 126.008 137.057 126.115 136.524 126.328C135.991 126.52 135.5 126.829 135.052 127.256C134.625 127.683 134.284 128.227 134.028 128.888C133.772 129.549 133.644 130.339 133.644 131.256V139.032H131.308V124.376ZM150.252 139.352C148.588 139.352 147.308 138.979 146.412 138.232C145.516 137.464 145.068 136.493 145.068 135.32C145.068 134.531 145.26 133.827 145.644 133.208C146.028 132.568 146.551 132.035 147.212 131.608C147.895 131.16 148.684 130.819 149.58 130.584C150.476 130.349 151.425 130.232 152.428 130.232C152.791 130.232 153.153 130.243 153.516 130.264C153.9 130.264 154.295 130.285 154.7 130.328C155.127 130.349 155.564 130.392 156.012 130.456L156.076 132.216C155.692 132.152 155.297 132.109 154.892 132.088C154.508 132.045 154.124 132.013 153.74 131.992C153.356 131.971 152.983 131.96 152.62 131.96C151.852 131.96 151.148 132.024 150.508 132.152C149.868 132.28 149.313 132.472 148.844 132.728C148.375 132.984 148.012 133.315 147.756 133.72C147.5 134.125 147.372 134.616 147.372 135.192C147.372 135.64 147.447 136.024 147.596 136.344C147.767 136.643 147.991 136.888 148.268 137.08C148.545 137.251 148.865 137.379 149.228 137.464C149.612 137.549 150.028 137.592 150.476 137.592C151.308 137.592 152.044 137.464 152.684 137.208C153.345 136.931 153.9 136.536 154.348 136.024C154.817 135.512 155.169 134.883 155.404 134.136C155.639 133.389 155.756 132.536 155.756 131.576C155.756 130.125 155.585 128.995 155.244 128.184C154.903 127.373 154.391 126.797 153.708 126.456C153.047 126.115 152.193 125.944 151.148 125.944C150.444 125.944 149.751 126.083 149.068 126.36C148.385 126.616 147.767 127.021 147.212 127.576L146.092 126.104C146.775 125.421 147.564 124.909 148.46 124.568C149.356 124.227 150.305 124.056 151.308 124.056C152.268 124.056 153.143 124.173 153.932 124.408C154.721 124.643 155.393 125.037 155.948 125.592C156.524 126.125 156.961 126.851 157.26 127.768C157.58 128.685 157.74 129.837 157.74 131.224V139H155.244V136.76C154.967 137.293 154.625 137.731 154.22 138.072C153.836 138.413 153.42 138.68 152.972 138.872C152.524 139.043 152.065 139.16 151.596 139.224C151.127 139.309 150.679 139.352 150.252 139.352ZM164.684 126.2H161.516V124.376H164.684V123.16C164.684 121.859 164.908 120.792 165.356 119.96C165.825 119.128 166.465 118.52 167.276 118.136C168.087 117.731 169.015 117.528 170.06 117.528C170.977 117.528 171.831 117.699 172.62 118.04C173.431 118.36 174.103 118.861 174.636 119.544L173.42 121.24L173.228 121.496L173.036 121.368C173.015 121.197 172.972 121.027 172.908 120.856C172.844 120.685 172.695 120.472 172.46 120.216C172.119 119.917 171.777 119.704 171.436 119.576C171.095 119.448 170.657 119.384 170.124 119.384C169.505 119.384 168.951 119.512 168.46 119.768C167.969 120.003 167.585 120.397 167.308 120.952C167.031 121.485 166.892 122.221 166.892 123.16V124.376H171.692V126.2H166.892V139H164.684V126.2ZM185.068 139.224C184.129 139.224 183.361 139.064 182.764 138.744C182.167 138.424 181.708 137.933 181.388 137.272C181.068 136.589 180.855 135.736 180.748 134.712C180.663 133.688 180.641 132.472 180.684 131.064L181.068 120.632L183.468 120.344L183.788 120.312L183.82 120.536C183.713 120.685 183.617 120.835 183.532 120.984C183.468 121.133 183.415 121.389 183.372 121.752L183.084 125.368L183.18 125.944L182.956 131.224C182.892 132.845 182.935 134.104 183.084 135C183.233 135.875 183.5 136.483 183.884 136.824C184.268 137.144 184.78 137.304 185.42 137.304C186.124 137.304 186.743 137.165 187.276 136.888C187.831 136.611 188.407 136.259 189.004 135.832L189.708 137.656C188.983 138.189 188.236 138.584 187.468 138.84C186.7 139.096 185.9 139.224 185.068 139.224ZM177.74 124.376H188.268V126.264H177.74V124.376Z" fill="#000"/>
</svg>
