<svg width="111" height="23" viewBox="0 0 111 23" fill="none" xmlns="http://www.w3.org/2000/svg">
<path d="M8.12 22.32C7.032 22.32 6.01867 22.128 5.08 21.744C4.14133 21.3387 3.30933 20.72 2.584 19.888C1.88 19.056 1.32533 18 0.92 16.72C0.514667 15.44 0.312 13.9147 0.312 12.144C0.312 10.5867 0.461333 9.232 0.76 8.08C1.05867 6.90667 1.464 5.92533 1.976 5.136C2.488 4.34667 3.07467 3.71733 3.736 3.248C4.39733 2.77867 5.09067 2.43733 5.816 2.224C6.54133 2.01067 7.26667 1.904 7.992 1.904C9.44267 1.904 10.68 2.26667 11.704 2.992C12.728 3.696 13.496 4.64533 14.008 5.84L12.088 6.736L11.8 6.864L11.704 6.64C11.768 6.46933 11.768 6.32 11.704 6.192C11.64 6.04267 11.5227 5.81867 11.352 5.52C10.8187 4.79467 10.264 4.31467 9.688 4.08C9.13333 3.824 8.54667 3.696 7.928 3.696C7.096 3.696 6.33867 3.888 5.656 4.272C4.99467 4.63467 4.41867 5.17867 3.928 5.904C3.45867 6.608 3.096 7.472 2.84 8.496C2.60533 9.52 2.488 10.6827 2.488 11.984C2.488 13.2427 2.62667 14.384 2.904 15.408C3.20267 16.432 3.59733 17.3173 4.088 18.064C4.6 18.8107 5.18667 19.3867 5.848 19.792C6.53067 20.1973 7.256 20.4 8.024 20.4C8.55733 20.4 9.06933 20.304 9.56 20.112C10.072 19.92 10.5413 19.6427 10.968 19.28C11.3947 18.896 11.7573 18.4587 12.056 17.968L13.72 19.056C13.08 20.1227 12.312 20.9333 11.416 21.488C10.52 22.0427 9.42133 22.32 8.12 22.32ZM21.752 22.352C20.088 22.352 18.808 21.9787 17.912 21.232C17.016 20.464 16.568 19.4933 16.568 18.32C16.568 17.5307 16.76 16.8267 17.144 16.208C17.528 15.568 18.0507 15.0347 18.712 14.608C19.3947 14.16 20.184 13.8187 21.08 13.584C21.976 13.3493 22.9253 13.232 23.928 13.232C24.2907 13.232 24.6533 13.2427 25.016 13.264C25.4 13.264 25.7947 13.2853 26.2 13.328C26.6267 13.3493 27.064 13.392 27.512 13.456L27.576 15.216C27.192 15.152 26.7973 15.1093 26.392 15.088C26.008 15.0453 25.624 15.0133 25.24 14.992C24.856 14.9707 24.4827 14.96 24.12 14.96C23.352 14.96 22.648 15.024 22.008 15.152C21.368 15.28 20.8133 15.472 20.344 15.728C19.8747 15.984 19.512 16.3147 19.256 16.72C19 17.1253 18.872 17.616 18.872 18.192C18.872 18.64 18.9467 19.024 19.096 19.344C19.2667 19.6427 19.4907 19.888 19.768 20.08C20.0453 20.2507 20.3653 20.3787 20.728 20.464C21.112 20.5493 21.528 20.592 21.976 20.592C22.808 20.592 23.544 20.464 24.184 20.208C24.8453 19.9307 25.4 19.536 25.848 19.024C26.3173 18.512 26.6693 17.8827 26.904 17.136C27.1387 16.3893 27.256 15.536 27.256 14.576C27.256 13.1253 27.0853 11.9947 26.744 11.184C26.4027 10.3733 25.8907 9.79733 25.208 9.456C24.5467 9.11467 23.6933 8.944 22.648 8.944C21.944 8.944 21.2507 9.08267 20.568 9.36C19.8853 9.616 19.2667 10.0213 18.712 10.576L17.592 9.104C18.2747 8.42133 19.064 7.90933 19.96 7.568C20.856 7.22667 21.8053 7.056 22.808 7.056C23.768 7.056 24.6427 7.17333 25.432 7.408C26.2213 7.64267 26.8933 8.03733 27.448 8.592C28.024 9.12533 28.4613 9.85067 28.76 10.768C29.08 11.6853 29.24 12.8373 29.24 14.224V22H26.744V19.76C26.4667 20.2933 26.1253 20.7307 25.72 21.072C25.336 21.4133 24.92 21.68 24.472 21.872C24.024 22.0427 23.5653 22.16 23.096 22.224C22.6267 22.3093 22.1787 22.352 21.752 22.352ZM38.072 22.352C37.496 22.352 36.952 22.2667 36.44 22.096C35.928 21.9253 35.4587 21.6693 35.032 21.328C34.6267 20.9653 34.2747 20.5173 33.976 19.984C33.6773 19.4507 33.4427 18.8107 33.272 18.064C33.1227 17.3173 33.048 16.4747 33.048 15.536L33.08 7.376H35.32V15.536C35.32 16.4533 35.4053 17.232 35.576 17.872C35.7467 18.512 35.9813 19.024 36.28 19.408C36.6 19.792 36.9627 20.0693 37.368 20.24C37.7733 20.4107 38.2 20.496 38.648 20.496C39.16 20.496 39.6507 20.4 40.12 20.208C40.5893 19.9947 41.0053 19.6853 41.368 19.28C41.752 18.8747 42.0507 18.352 42.264 17.712C42.4773 17.072 42.584 16.3147 42.584 15.44V7.376H44.824V19.728C44.824 20.112 44.8347 20.496 44.856 20.88C44.8987 21.2427 44.9947 21.616 45.144 22H42.936C42.8293 21.744 42.7547 21.4987 42.712 21.264C42.6693 21.008 42.6373 20.752 42.616 20.496C42.616 20.24 42.616 19.9947 42.616 19.76C42.3813 20.1653 42.104 20.528 41.784 20.848C41.464 21.168 41.1013 21.4453 40.696 21.68C40.312 21.8933 39.896 22.0533 39.448 22.16C39.0213 22.288 38.5627 22.352 38.072 22.352ZM53.752 22.352C52.088 22.352 50.808 21.9787 49.912 21.232C49.016 20.464 48.568 19.4933 48.568 18.32C48.568 17.5307 48.76 16.8267 49.144 16.208C49.528 15.568 50.0507 15.0347 50.712 14.608C51.3947 14.16 52.184 13.8187 53.08 13.584C53.976 13.3493 54.9253 13.232 55.928 13.232C56.2907 13.232 56.6533 13.2427 57.016 13.264C57.4 13.264 57.7947 13.2853 58.2 13.328C58.6267 13.3493 59.064 13.392 59.512 13.456L59.576 15.216C59.192 15.152 58.7973 15.1093 58.392 15.088C58.008 15.0453 57.624 15.0133 57.24 14.992C56.856 14.9707 56.4827 14.96 56.12 14.96C55.352 14.96 54.648 15.024 54.008 15.152C53.368 15.28 52.8133 15.472 52.344 15.728C51.8747 15.984 51.512 16.3147 51.256 16.72C51 17.1253 50.872 17.616 50.872 18.192C50.872 18.64 50.9467 19.024 51.096 19.344C51.2667 19.6427 51.4907 19.888 51.768 20.08C52.0453 20.2507 52.3653 20.3787 52.728 20.464C53.112 20.5493 53.528 20.592 53.976 20.592C54.808 20.592 55.544 20.464 56.184 20.208C56.8453 19.9307 57.4 19.536 57.848 19.024C58.3173 18.512 58.6693 17.8827 58.904 17.136C59.1387 16.3893 59.256 15.536 59.256 14.576C59.256 13.1253 59.0853 11.9947 58.744 11.184C58.4027 10.3733 57.8907 9.79733 57.208 9.456C56.5467 9.11467 55.6933 8.944 54.648 8.944C53.944 8.944 53.2507 9.08267 52.568 9.36C51.8853 9.616 51.2667 10.0213 50.712 10.576L49.592 9.104C50.2747 8.42133 51.064 7.90933 51.96 7.568C52.856 7.22667 53.8053 7.056 54.808 7.056C55.768 7.056 56.6427 7.17333 57.432 7.408C58.2213 7.64267 58.8933 8.03733 59.448 8.592C60.024 9.12533 60.4613 9.85067 60.76 10.768C61.08 11.6853 61.24 12.8373 61.24 14.224V22H58.744V19.76C58.4667 20.2933 58.1253 20.7307 57.72 21.072C57.336 21.4133 56.92 21.68 56.472 21.872C56.024 22.0427 55.5653 22.16 55.096 22.224C54.6267 22.3093 54.1787 22.352 53.752 22.352ZM70.488 22.32C69.7413 22.32 69.0053 22.16 68.28 21.84C67.576 21.52 66.9253 21.04 66.328 20.4C65.752 19.76 65.2933 18.9493 64.952 17.968C64.6107 16.9867 64.44 15.8453 64.44 14.544C64.44 13.2 64.6213 12.0587 64.984 11.12C65.3467 10.16 65.8267 9.38133 66.424 8.784C67.0213 8.16533 67.6827 7.71733 68.408 7.44C69.1333 7.14133 69.8693 6.992 70.616 6.992C71.2987 6.992 71.9067 7.09867 72.44 7.312C72.9947 7.52533 73.4747 7.824 73.88 8.208C74.3067 8.57067 74.6373 9.008 74.872 9.52V0.719999H76.984H77.304V0.943998C77.176 1.072 77.0907 1.21067 77.048 1.36C77.0267 1.50933 77.016 1.76533 77.016 2.128L77.048 19.728C77.048 20.112 77.0587 20.496 77.08 20.88C77.1227 21.2427 77.2187 21.616 77.368 22H75.096C74.9893 21.744 74.9147 21.488 74.872 21.232C74.8293 20.976 74.7973 20.7307 74.776 20.496C74.776 20.24 74.776 19.984 74.776 19.728C74.4773 20.24 74.1147 20.6987 73.688 21.104C73.2613 21.488 72.7813 21.7867 72.248 22C71.7147 22.2133 71.128 22.32 70.488 22.32ZM70.84 20.304C71.544 20.304 72.1413 20.1653 72.632 19.888C73.1227 19.5893 73.5173 19.184 73.816 18.672C74.1147 18.1387 74.328 17.5307 74.456 16.848C74.6053 16.144 74.68 15.3973 74.68 14.608C74.68 13.52 74.5413 12.5493 74.264 11.696C73.9867 10.8213 73.5493 10.1387 72.952 9.648C72.3547 9.136 71.5867 8.88 70.648 8.88C70.008 8.88 69.432 9.008 68.92 9.264C68.4293 9.49867 68.0133 9.85067 67.672 10.32C67.352 10.7893 67.1067 11.3547 66.936 12.016C66.7653 12.656 66.68 13.3813 66.68 14.192C66.68 15.408 66.84 16.4747 67.16 17.392C67.48 18.3093 67.9493 19.024 68.568 19.536C69.1867 20.048 69.944 20.304 70.84 20.304ZM87.032 22.32C86.2213 22.32 85.4427 22.2347 84.696 22.064C83.9707 21.8933 83.2773 21.6373 82.616 21.296C81.976 20.9547 81.3787 20.528 80.824 20.016L82.104 17.84L82.296 17.552L82.488 17.68C82.5307 17.8507 82.5733 18.032 82.616 18.224C82.68 18.3947 82.8293 18.608 83.064 18.864C83.512 19.312 84.0453 19.6853 84.664 19.984C85.304 20.2613 86.1147 20.4 87.096 20.4C87.8853 20.4 88.5467 20.304 89.08 20.112C89.6347 19.92 90.0613 19.6533 90.36 19.312C90.6587 18.9493 90.808 18.5333 90.808 18.064C90.808 17.744 90.744 17.4667 90.616 17.232C90.488 16.976 90.2747 16.7413 89.976 16.528C89.6987 16.3147 89.3253 16.1013 88.856 15.888C88.3867 15.6747 87.8107 15.4613 87.128 15.248C86.0187 14.928 85.048 14.5547 84.216 14.128C83.384 13.7013 82.744 13.2107 82.296 12.656C81.848 12.08 81.624 11.4293 81.624 10.704C81.624 9.95733 81.8267 9.31733 82.232 8.784C82.6373 8.22933 83.2347 7.80267 84.024 7.504C84.8347 7.184 85.8267 7.024 87 7.024C87.6827 7.024 88.3013 7.07733 88.856 7.184C89.4107 7.26933 89.9227 7.408 90.392 7.6C90.8613 7.792 91.288 8.03733 91.672 8.336C92.0773 8.61333 92.4613 8.944 92.824 9.328L91.512 10.928L91.288 11.184L91.128 11.024C91.1067 10.8533 91.0533 10.6933 90.968 10.544C90.904 10.3733 90.7547 10.1707 90.52 9.936C90.0293 9.552 89.4747 9.264 88.856 9.072C88.2373 8.85867 87.64 8.752 87.064 8.752C86.2107 8.752 85.4747 8.90133 84.856 9.2C84.2373 9.49867 83.928 9.95733 83.928 10.576C83.928 10.896 84.0347 11.216 84.248 11.536C84.4827 11.8347 84.8987 12.144 85.496 12.464C86.0933 12.7627 86.9467 13.072 88.056 13.392C89.272 13.776 90.2427 14.1707 90.968 14.576C91.7147 14.96 92.248 15.408 92.568 15.92C92.9093 16.432 93.08 17.04 93.08 17.744C93.08 18.5547 92.856 19.312 92.408 20.016C91.9813 20.72 91.32 21.2853 90.424 21.712C89.528 22.1173 88.3973 22.32 87.032 22.32ZM96.216 22V7.376H98.328V8.816C98.5627 8.45333 98.8293 8.144 99.128 7.888C99.448 7.61067 99.7893 7.39733 100.152 7.248C100.536 7.09867 100.92 7.024 101.304 7.024C101.731 7.024 102.125 7.12 102.488 7.312C102.851 7.48267 103.149 7.728 103.384 8.048C103.64 8.368 103.811 8.74133 103.896 9.168C104.088 8.74133 104.344 8.368 104.664 8.048C105.005 7.728 105.389 7.48267 105.816 7.312C106.264 7.12 106.723 7.024 107.192 7.024C107.683 7.024 108.109 7.12 108.472 7.312C108.835 7.504 109.133 7.77067 109.368 8.112C109.603 8.432 109.773 8.82667 109.88 9.296C109.987 9.744 110.029 10.2347 110.008 10.768V22H107.896V11.632C107.896 10.736 107.832 10.0853 107.704 9.68C107.597 9.27467 107.437 9.01867 107.224 8.912C107.011 8.784 106.776 8.72 106.52 8.72C106.115 8.72 105.731 8.912 105.368 9.296C105.027 9.65867 104.739 10.1173 104.504 10.672C104.291 11.2267 104.184 11.7813 104.184 12.336V22H102.04V11.824C102.04 10.608 101.923 9.79733 101.688 9.392C101.475 8.98667 101.059 8.784 100.44 8.784C100.205 8.784 99.96 8.86933 99.704 9.04C99.4693 9.18933 99.2453 9.41333 99.032 9.712C98.8187 9.98933 98.648 10.3413 98.52 10.768C98.392 11.1947 98.328 11.6853 98.328 12.24V22H96.216Z" fill="black"/>
</svg>
