<svg width="256" height="256" viewBox="0 0 256 256" fill="none" xmlns="http://www.w3.org/2000/svg">
<path d="M66.092 139V137.112H70.028V120.952H66.316V119.064H76.204V120.952H72.268V137.144H76.396V139H66.092ZM80.812 139V119.064H82.572L87.5 128.824L92.524 119.032H94.22V139H92.108V123.96L87.788 131.992H86.924L82.892 124.056V139H80.812ZM104.62 139.32C103.532 139.32 102.519 139.128 101.58 138.744C100.641 138.339 99.8093 137.72 99.084 136.888C98.38 136.056 97.8253 135 97.42 133.72C97.0147 132.44 96.812 130.915 96.812 129.144C96.812 127.587 96.9613 126.232 97.26 125.08C97.5587 123.907 97.964 122.925 98.476 122.136C98.988 121.347 99.5747 120.717 100.236 120.248C100.897 119.779 101.591 119.437 102.316 119.224C103.041 119.011 103.767 118.904 104.492 118.904C105.943 118.904 107.18 119.267 108.204 119.992C109.228 120.696 109.996 121.645 110.508 122.84L108.588 123.736L108.3 123.864L108.204 123.64C108.268 123.469 108.268 123.32 108.204 123.192C108.14 123.043 108.023 122.819 107.852 122.52C107.319 121.795 106.764 121.315 106.188 121.08C105.633 120.824 105.047 120.696 104.428 120.696C103.596 120.696 102.839 120.888 102.156 121.272C101.495 121.635 100.919 122.179 100.428 122.904C99.9587 123.608 99.596 124.472 99.34 125.496C99.1053 126.52 98.988 127.683 98.988 128.984C98.988 130.243 99.1267 131.384 99.404 132.408C99.7027 133.432 100.097 134.317 100.588 135.064C101.1 135.811 101.687 136.387 102.348 136.792C103.031 137.197 103.756 137.4 104.524 137.4C105.057 137.4 105.569 137.304 106.06 137.112C106.572 136.92 107.041 136.643 107.468 136.28C107.895 135.896 108.257 135.459 108.556 134.968L110.22 136.056C109.58 137.123 108.812 137.933 107.916 138.488C107.02 139.043 105.921 139.32 104.62 139.32ZM136.62 139.352C135.553 139.352 134.572 139.16 133.676 138.776C132.78 138.392 132.001 137.859 131.34 137.176C130.7 136.493 130.199 135.693 129.836 134.776C129.473 133.837 129.292 132.813 129.292 131.704C129.292 130.616 129.473 129.613 129.836 128.696C130.199 127.757 130.7 126.947 131.34 126.264C132.001 125.581 132.78 125.048 133.676 124.664C134.572 124.28 135.543 124.088 136.588 124.088C137.783 124.088 138.849 124.333 139.788 124.824C140.748 125.293 141.527 125.955 142.124 126.808L140.684 128.216L140.46 128.44L140.3 128.28C140.3 128.109 140.257 127.949 140.172 127.8C140.108 127.651 139.948 127.448 139.692 127.192C139.223 126.765 138.721 126.467 138.188 126.296C137.655 126.125 137.036 126.04 136.332 126.04C135.713 126.04 135.127 126.168 134.572 126.424C134.017 126.68 133.516 127.053 133.068 127.544C132.641 128.013 132.3 128.589 132.044 129.272C131.788 129.955 131.66 130.712 131.66 131.544C131.66 132.376 131.788 133.144 132.044 133.848C132.3 134.531 132.652 135.128 133.1 135.64C133.548 136.152 134.081 136.557 134.7 136.856C135.34 137.133 136.023 137.272 136.748 137.272C137.239 137.272 137.708 137.208 138.156 137.08C138.604 136.931 139.031 136.728 139.436 136.472C139.841 136.195 140.215 135.864 140.556 135.48L141.9 137.048C141.175 137.816 140.364 138.392 139.468 138.776C138.593 139.16 137.644 139.352 136.62 139.352ZM150.252 139.352C148.588 139.352 147.308 138.979 146.412 138.232C145.516 137.464 145.068 136.493 145.068 135.32C145.068 134.531 145.26 133.827 145.644 133.208C146.028 132.568 146.551 132.035 147.212 131.608C147.895 131.16 148.684 130.819 149.58 130.584C150.476 130.349 151.425 130.232 152.428 130.232C152.791 130.232 153.153 130.243 153.516 130.264C153.9 130.264 154.295 130.285 154.7 130.328C155.127 130.349 155.564 130.392 156.012 130.456L156.076 132.216C155.692 132.152 155.297 132.109 154.892 132.088C154.508 132.045 154.124 132.013 153.74 131.992C153.356 131.971 152.983 131.96 152.62 131.96C151.852 131.96 151.148 132.024 150.508 132.152C149.868 132.28 149.313 132.472 148.844 132.728C148.375 132.984 148.012 133.315 147.756 133.72C147.5 134.125 147.372 134.616 147.372 135.192C147.372 135.64 147.447 136.024 147.596 136.344C147.767 136.643 147.991 136.888 148.268 137.08C148.545 137.251 148.865 137.379 149.228 137.464C149.612 137.549 150.028 137.592 150.476 137.592C151.308 137.592 152.044 137.464 152.684 137.208C153.345 136.931 153.9 136.536 154.348 136.024C154.817 135.512 155.169 134.883 155.404 134.136C155.639 133.389 155.756 132.536 155.756 131.576C155.756 130.125 155.585 128.995 155.244 128.184C154.903 127.373 154.391 126.797 153.708 126.456C153.047 126.115 152.193 125.944 151.148 125.944C150.444 125.944 149.751 126.083 149.068 126.36C148.385 126.616 147.767 127.021 147.212 127.576L146.092 126.104C146.775 125.421 147.564 124.909 148.46 124.568C149.356 124.227 150.305 124.056 151.308 124.056C152.268 124.056 153.143 124.173 153.932 124.408C154.721 124.643 155.393 125.037 155.948 125.592C156.524 126.125 156.961 126.851 157.26 127.768C157.58 128.685 157.74 129.837 157.74 131.224V139H155.244V136.76C154.967 137.293 154.625 137.731 154.22 138.072C153.836 138.413 153.42 138.68 152.972 138.872C152.524 139.043 152.065 139.16 151.596 139.224C151.127 139.309 150.679 139.352 150.252 139.352ZM162.028 139V137.144H166.348V119.576H162.22V117.72H168.684V137.144H172.972V139H162.028ZM184.62 139.352C183.553 139.352 182.572 139.16 181.676 138.776C180.78 138.392 180.001 137.859 179.34 137.176C178.7 136.493 178.199 135.693 177.836 134.776C177.473 133.837 177.292 132.813 177.292 131.704C177.292 130.616 177.473 129.613 177.836 128.696C178.199 127.757 178.7 126.947 179.34 126.264C180.001 125.581 180.78 125.048 181.676 124.664C182.572 124.28 183.543 124.088 184.588 124.088C185.783 124.088 186.849 124.333 187.788 124.824C188.748 125.293 189.527 125.955 190.124 126.808L188.684 128.216L188.46 128.44L188.3 128.28C188.3 128.109 188.257 127.949 188.172 127.8C188.108 127.651 187.948 127.448 187.692 127.192C187.223 126.765 186.721 126.467 186.188 126.296C185.655 126.125 185.036 126.04 184.332 126.04C183.713 126.04 183.127 126.168 182.572 126.424C182.017 126.68 181.516 127.053 181.068 127.544C180.641 128.013 180.3 128.589 180.044 129.272C179.788 129.955 179.66 130.712 179.66 131.544C179.66 132.376 179.788 133.144 180.044 133.848C180.3 134.531 180.652 135.128 181.1 135.64C181.548 136.152 182.081 136.557 182.7 136.856C183.34 137.133 184.023 137.272 184.748 137.272C185.239 137.272 185.708 137.208 186.156 137.08C186.604 136.931 187.031 136.728 187.436 136.472C187.841 136.195 188.215 135.864 188.556 135.48L189.9 137.048C189.175 137.816 188.364 138.392 187.468 138.776C186.593 139.16 185.644 139.352 184.62 139.352Z" fill="white"/>
</svg>
