<svg width="174" height="23" viewBox="0 0 174 23" fill="none" xmlns="http://www.w3.org/2000/svg">
<path d="M0.6 2.064H2.776L11.16 16.848V2.064H13.272H13.592V2.288C13.464 2.416 13.3787 2.55467 13.336 2.704C13.3147 2.85333 13.304 3.10933 13.304 3.472V22H11.544L2.744 6.32V22H0.6V2.064ZM22.072 22.352C21.496 22.352 20.952 22.2667 20.44 22.096C19.928 21.9253 19.4587 21.6693 19.032 21.328C18.6267 20.9653 18.2747 20.5173 17.976 19.984C17.6773 19.4507 17.4427 18.8107 17.272 18.064C17.1227 17.3173 17.048 16.4747 17.048 15.536L17.08 7.376H19.32V15.536C19.32 16.4533 19.4053 17.232 19.576 17.872C19.7467 18.512 19.9813 19.024 20.28 19.408C20.6 19.792 20.9627 20.0693 21.368 20.24C21.7733 20.4107 22.2 20.496 22.648 20.496C23.16 20.496 23.6507 20.4 24.12 20.208C24.5893 19.9947 25.0053 19.6853 25.368 19.28C25.752 18.8747 26.0507 18.352 26.264 17.712C26.4773 17.072 26.584 16.3147 26.584 15.44V7.376H28.824V19.728C28.824 20.112 28.8347 20.496 28.856 20.88C28.8987 21.2427 28.9947 21.616 29.144 22H26.936C26.8293 21.744 26.7547 21.4987 26.712 21.264C26.6693 21.008 26.6373 20.752 26.616 20.496C26.616 20.24 26.616 19.9947 26.616 19.76C26.3813 20.1653 26.104 20.528 25.784 20.848C25.464 21.168 25.1013 21.4453 24.696 21.68C24.312 21.8933 23.896 22.0533 23.448 22.16C23.0213 22.288 22.5627 22.352 22.072 22.352ZM32.216 22V7.376H34.328V8.816C34.5627 8.45333 34.8293 8.144 35.128 7.888C35.448 7.61067 35.7893 7.39733 36.152 7.248C36.536 7.09867 36.92 7.024 37.304 7.024C37.7307 7.024 38.1253 7.12 38.488 7.312C38.8507 7.48267 39.1493 7.728 39.384 8.048C39.64 8.368 39.8107 8.74133 39.896 9.168C40.088 8.74133 40.344 8.368 40.664 8.048C41.0053 7.728 41.3893 7.48267 41.816 7.312C42.264 7.12 42.7227 7.024 43.192 7.024C43.6827 7.024 44.1093 7.12 44.472 7.312C44.8347 7.504 45.1333 7.77067 45.368 8.112C45.6027 8.432 45.7733 8.82667 45.88 9.296C45.9867 9.744 46.0293 10.2347 46.008 10.768V22H43.896V11.632C43.896 10.736 43.832 10.0853 43.704 9.68C43.5973 9.27467 43.4373 9.01867 43.224 8.912C43.0107 8.784 42.776 8.72 42.52 8.72C42.1147 8.72 41.7307 8.912 41.368 9.296C41.0267 9.65867 40.7387 10.1173 40.504 10.672C40.2907 11.2267 40.184 11.7813 40.184 12.336V22H38.04V11.824C38.04 10.608 37.9227 9.79733 37.688 9.392C37.4747 8.98667 37.0587 8.784 36.44 8.784C36.2053 8.784 35.96 8.86933 35.704 9.04C35.4693 9.18933 35.2453 9.41333 35.032 9.712C34.8187 9.98933 34.648 10.3413 34.52 10.768C34.392 11.1947 34.328 11.6853 34.328 12.24V22H32.216ZM55.512 22.352C54.9147 22.352 54.3493 22.256 53.816 22.064C53.2827 21.8933 52.792 21.6373 52.344 21.296C51.9173 20.9547 51.5333 20.5493 51.192 20.08L50.392 22H48.92V0.719999H51.224H51.544V0.943998C51.416 1.072 51.3307 1.21067 51.288 1.36C51.2667 1.50933 51.256 1.76533 51.256 2.128V9.616C51.4907 9.232 51.768 8.88 52.088 8.56C52.408 8.24 52.76 7.96267 53.144 7.728C53.528 7.49333 53.9333 7.32267 54.36 7.216C54.7867 7.088 55.2027 7.024 55.608 7.024C56.504 7.024 57.3147 7.184 58.04 7.504C58.7867 7.80267 59.4267 8.272 59.96 8.912C60.4933 9.53067 60.8987 10.3093 61.176 11.248C61.4747 12.1867 61.624 13.2853 61.624 14.544C61.624 15.8453 61.4533 16.9867 61.112 17.968C60.7707 18.9493 60.3013 19.7707 59.704 20.432C59.128 21.072 58.4773 21.552 57.752 21.872C57.0267 22.192 56.28 22.352 55.512 22.352ZM55.224 20.304C55.736 20.304 56.2267 20.208 56.696 20.016C57.1867 19.824 57.624 19.5147 58.008 19.088C58.392 18.64 58.6907 18.0533 58.904 17.328C59.1387 16.6027 59.256 15.7173 59.256 14.672C59.256 13.712 59.16 12.88 58.968 12.176C58.776 11.4507 58.4987 10.8533 58.136 10.384C57.7947 9.91467 57.3787 9.57333 56.888 9.36C56.3973 9.12533 55.864 9.008 55.288 9.008C54.4987 9.008 53.7947 9.25333 53.176 9.744C52.5787 10.2133 52.1093 10.8853 51.768 11.76C51.4267 12.6133 51.256 13.6053 51.256 14.736C51.256 15.568 51.3307 16.3253 51.48 17.008C51.6293 17.6907 51.8533 18.2773 52.152 18.768C52.472 19.2587 52.8773 19.6427 53.368 19.92C53.88 20.176 54.4987 20.304 55.224 20.304ZM71.704 22.32C70.6373 22.32 69.6667 22.16 68.792 21.84C67.9173 21.4987 67.16 21.008 66.52 20.368C65.9013 19.728 65.4213 18.9387 65.08 18C64.7387 17.04 64.568 15.952 64.568 14.736C64.568 13.4987 64.7387 12.4 65.08 11.44C65.4427 10.48 65.9227 9.68 66.52 9.04C67.1387 8.37867 67.8533 7.87733 68.664 7.536C69.496 7.19467 70.3707 7.024 71.288 7.024C72.12 7.024 72.8987 7.16267 73.624 7.44C74.3493 7.71733 74.9787 8.144 75.512 8.72C76.0453 9.27467 76.4613 9.98933 76.76 10.864C77.08 11.7387 77.24 12.7733 77.24 13.968C77.24 14.1387 77.2293 14.32 77.208 14.512C77.208 14.6827 77.1973 14.8533 77.176 15.024H66.776C66.8187 15.9627 66.9787 16.784 67.256 17.488C67.5333 18.1707 67.896 18.736 68.344 19.184C68.792 19.6107 69.304 19.9307 69.88 20.144C70.4773 20.3573 71.1067 20.464 71.768 20.464C72.28 20.464 72.76 20.4107 73.208 20.304C73.656 20.176 74.072 19.9947 74.456 19.76C74.8613 19.504 75.224 19.1947 75.544 18.832L76.824 20.08C76.4187 20.5707 75.9493 20.9867 75.416 21.328C74.904 21.6693 74.3387 21.9147 73.72 22.064C73.1013 22.2347 72.4293 22.32 71.704 22.32ZM66.872 13.232H74.904C74.904 12.5493 74.808 11.9413 74.616 11.408C74.4453 10.8533 74.1893 10.384 73.848 10C73.528 9.59467 73.1333 9.296 72.664 9.104C72.216 8.89067 71.704 8.784 71.128 8.784C70.616 8.784 70.1253 8.86933 69.656 9.04C69.208 9.21067 68.792 9.488 68.408 9.872C68.024 10.2347 67.6933 10.6933 67.416 11.248C67.16 11.8027 66.9787 12.464 66.872 13.232ZM82.808 7.376H85.208L85.112 11.632L84.824 11.152C84.952 10.4907 85.176 9.904 85.496 9.392C85.816 8.88 86.2 8.45333 86.648 8.112C87.096 7.74933 87.5867 7.48267 88.12 7.312C88.6533 7.12 89.208 7.024 89.784 7.024C90.552 7.024 91.256 7.16267 91.896 7.44C92.5573 7.696 93.144 8.09067 93.656 8.624L92.632 10.416L92.504 10.704L92.28 10.576C92.2373 10.4053 92.1733 10.2453 92.088 10.096C92.0027 9.94667 91.8213 9.76533 91.544 9.552C91.2027 9.33867 90.8827 9.2 90.584 9.136C90.3067 9.05067 89.9867 9.008 89.624 9.008C89.0907 9.008 88.5573 9.11467 88.024 9.328C87.4907 9.52 87 9.82933 86.552 10.256C86.1253 10.6827 85.784 11.2267 85.528 11.888C85.272 12.5493 85.144 13.3387 85.144 14.256V22.032H82.808V7.376ZM119.864 22.32C118.285 22.32 116.909 21.904 115.736 21.072C114.584 20.24 113.699 19.0667 113.08 17.552C112.461 16.0373 112.152 14.2773 112.152 12.272C112.131 10.544 112.28 9.08267 112.6 7.888C112.941 6.672 113.389 5.66933 113.944 4.88C114.499 4.09067 115.117 3.472 115.8 3.024C116.483 2.576 117.165 2.26667 117.848 2.096C118.552 1.92533 119.192 1.84 119.768 1.84C120.557 1.84 121.325 1.98933 122.072 2.288C122.84 2.56533 123.533 2.94933 124.152 3.44C124.792 3.93067 125.293 4.51733 125.656 5.2L124.088 6.448L123.832 6.672L123.704 6.48C123.725 6.30933 123.693 6.16 123.608 6.032C123.544 5.88267 123.395 5.66933 123.16 5.392C122.84 5.02933 122.509 4.73067 122.168 4.496C121.827 4.26133 121.453 4.09067 121.048 3.984C120.664 3.87733 120.227 3.824 119.736 3.824C119.16 3.824 118.605 3.90933 118.072 4.08C117.539 4.22933 117.048 4.496 116.6 4.88C116.152 5.24267 115.757 5.73333 115.416 6.352C115.075 6.97067 114.808 7.728 114.616 8.624C114.445 9.52 114.36 10.576 114.36 11.792C114.36 13.1787 114.488 14.4053 114.744 15.472C115 16.5173 115.363 17.4027 115.832 18.128C116.323 18.8533 116.899 19.408 117.56 19.792C118.243 20.1547 119.011 20.336 119.864 20.336C120.163 20.336 120.472 20.3147 120.792 20.272C121.133 20.2293 121.464 20.1653 121.784 20.08C122.125 19.9733 122.456 19.8453 122.776 19.696C123.096 19.5253 123.384 19.3333 123.64 19.12V14.384H120.024V12.432H125.72V20.24C124.781 20.9227 123.821 21.4453 122.84 21.808C121.859 22.1493 120.867 22.32 119.864 22.32ZM133.752 22.352C132.088 22.352 130.808 21.9787 129.912 21.232C129.016 20.464 128.568 19.4933 128.568 18.32C128.568 17.5307 128.76 16.8267 129.144 16.208C129.528 15.568 130.051 15.0347 130.712 14.608C131.395 14.16 132.184 13.8187 133.08 13.584C133.976 13.3493 134.925 13.232 135.928 13.232C136.291 13.232 136.653 13.2427 137.016 13.264C137.4 13.264 137.795 13.2853 138.2 13.328C138.627 13.3493 139.064 13.392 139.512 13.456L139.576 15.216C139.192 15.152 138.797 15.1093 138.392 15.088C138.008 15.0453 137.624 15.0133 137.24 14.992C136.856 14.9707 136.483 14.96 136.12 14.96C135.352 14.96 134.648 15.024 134.008 15.152C133.368 15.28 132.813 15.472 132.344 15.728C131.875 15.984 131.512 16.3147 131.256 16.72C131 17.1253 130.872 17.616 130.872 18.192C130.872 18.64 130.947 19.024 131.096 19.344C131.267 19.6427 131.491 19.888 131.768 20.08C132.045 20.2507 132.365 20.3787 132.728 20.464C133.112 20.5493 133.528 20.592 133.976 20.592C134.808 20.592 135.544 20.464 136.184 20.208C136.845 19.9307 137.4 19.536 137.848 19.024C138.317 18.512 138.669 17.8827 138.904 17.136C139.139 16.3893 139.256 15.536 139.256 14.576C139.256 13.1253 139.085 11.9947 138.744 11.184C138.403 10.3733 137.891 9.79733 137.208 9.456C136.547 9.11467 135.693 8.944 134.648 8.944C133.944 8.944 133.251 9.08267 132.568 9.36C131.885 9.616 131.267 10.0213 130.712 10.576L129.592 9.104C130.275 8.42133 131.064 7.90933 131.96 7.568C132.856 7.22667 133.805 7.056 134.808 7.056C135.768 7.056 136.643 7.17333 137.432 7.408C138.221 7.64267 138.893 8.03733 139.448 8.592C140.024 9.12533 140.461 9.85067 140.76 10.768C141.08 11.6853 141.24 12.8373 141.24 14.224V22H138.744V19.76C138.467 20.2933 138.125 20.7307 137.72 21.072C137.336 21.4133 136.92 21.68 136.472 21.872C136.024 22.0427 135.565 22.16 135.096 22.224C134.627 22.3093 134.179 22.352 133.752 22.352ZM144.216 22V7.376H146.328V8.816C146.563 8.45333 146.829 8.144 147.128 7.888C147.448 7.61067 147.789 7.39733 148.152 7.248C148.536 7.09867 148.92 7.024 149.304 7.024C149.731 7.024 150.125 7.12 150.488 7.312C150.851 7.48267 151.149 7.728 151.384 8.048C151.64 8.368 151.811 8.74133 151.896 9.168C152.088 8.74133 152.344 8.368 152.664 8.048C153.005 7.728 153.389 7.48267 153.816 7.312C154.264 7.12 154.723 7.024 155.192 7.024C155.683 7.024 156.109 7.12 156.472 7.312C156.835 7.504 157.133 7.77067 157.368 8.112C157.603 8.432 157.773 8.82667 157.88 9.296C157.987 9.744 158.029 10.2347 158.008 10.768V22H155.896V11.632C155.896 10.736 155.832 10.0853 155.704 9.68C155.597 9.27467 155.437 9.01867 155.224 8.912C155.011 8.784 154.776 8.72 154.52 8.72C154.115 8.72 153.731 8.912 153.368 9.296C153.027 9.65867 152.739 10.1173 152.504 10.672C152.291 11.2267 152.184 11.7813 152.184 12.336V22H150.04V11.824C150.04 10.608 149.923 9.79733 149.688 9.392C149.475 8.98667 149.059 8.784 148.44 8.784C148.205 8.784 147.96 8.86933 147.704 9.04C147.469 9.18933 147.245 9.41333 147.032 9.712C146.819 9.98933 146.648 10.3413 146.52 10.768C146.392 11.1947 146.328 11.6853 146.328 12.24V22H144.216ZM167.704 22.32C166.637 22.32 165.667 22.16 164.792 21.84C163.917 21.4987 163.16 21.008 162.52 20.368C161.901 19.728 161.421 18.9387 161.08 18C160.739 17.04 160.568 15.952 160.568 14.736C160.568 13.4987 160.739 12.4 161.08 11.44C161.443 10.48 161.923 9.68 162.52 9.04C163.139 8.37867 163.853 7.87733 164.664 7.536C165.496 7.19467 166.371 7.024 167.288 7.024C168.12 7.024 168.899 7.16267 169.624 7.44C170.349 7.71733 170.979 8.144 171.512 8.72C172.045 9.27467 172.461 9.98933 172.76 10.864C173.08 11.7387 173.24 12.7733 173.24 13.968C173.24 14.1387 173.229 14.32 173.208 14.512C173.208 14.6827 173.197 14.8533 173.176 15.024H162.776C162.819 15.9627 162.979 16.784 163.256 17.488C163.533 18.1707 163.896 18.736 164.344 19.184C164.792 19.6107 165.304 19.9307 165.88 20.144C166.477 20.3573 167.107 20.464 167.768 20.464C168.28 20.464 168.76 20.4107 169.208 20.304C169.656 20.176 170.072 19.9947 170.456 19.76C170.861 19.504 171.224 19.1947 171.544 18.832L172.824 20.08C172.419 20.5707 171.949 20.9867 171.416 21.328C170.904 21.6693 170.339 21.9147 169.72 22.064C169.101 22.2347 168.429 22.32 167.704 22.32ZM162.872 13.232H170.904C170.904 12.5493 170.808 11.9413 170.616 11.408C170.445 10.8533 170.189 10.384 169.848 10C169.528 9.59467 169.133 9.296 168.664 9.104C168.216 8.89067 167.704 8.784 167.128 8.784C166.616 8.784 166.125 8.86933 165.656 9.04C165.208 9.21067 164.792 9.488 164.408 9.872C164.024 10.2347 163.693 10.6933 163.416 11.248C163.16 11.8027 162.979 12.464 162.872 13.232Z" fill="white"/>
</svg>
