<svg width="222" height="23" viewBox="0 0 222 23" fill="none" xmlns="http://www.w3.org/2000/svg">
<path d="M8.62 22.32C11.212 22.32 12.94 21.2 14.22 19.056L12.556 17.968C11.66 19.472 10.124 20.4 8.524 20.4C5.452 20.4 2.988 17.008 2.988 11.984C2.988 6.768 5.068 3.696 8.428 3.696C9.932 3.696 11.372 4.304 12.556 6.736L14.508 5.84C13.484 3.472 11.372 1.904 8.492 1.904C4.908 1.904 0.812 4.304 0.812 12.144C0.844 19.216 4.3 22.32 8.62 22.32ZM23.404 22.32C28.076 22.32 30.06 19.312 30.06 16.56C30.06 14.096 28.94 12.592 25.036 10.992C21.004 9.392 20.108 8.368 20.108 6.576C20.108 5.008 21.42 3.664 23.532 3.664C25.58 3.664 26.828 4.24 28.14 6L29.42 4.304C28.044 2.736 26.06 1.808 23.884 1.808C20.108 1.808 17.804 3.792 17.804 6.736C17.804 9.008 19.116 11.056 23.276 12.656C27.02 14.288 27.852 15.056 27.852 16.88C27.852 18.768 26.092 20.304 23.724 20.304C21.196 20.304 19.404 19.216 18.316 17.744L17.164 19.792C18.732 21.456 20.812 22.32 23.404 22.32ZM39.116 12.144C40.14 12.144 41.036 11.312 41.036 10.32C41.036 9.296 40.108 8.464 39.116 8.464C38.124 8.464 37.228 9.296 37.228 10.32C37.228 11.312 38.124 12.144 39.116 12.144ZM39.116 22.352C40.172 22.352 41.036 21.52 41.036 20.528C41.036 19.504 40.108 18.672 39.116 18.672C38.124 18.672 37.228 19.504 37.228 20.528C37.228 21.552 38.06 22.352 39.116 22.352ZM56.364 22.32C58.38 22.32 60.332 21.616 62.22 20.24V12.432H56.524V14.384H60.14V19.12C59.116 19.984 57.516 20.336 56.364 20.336C52.972 20.336 50.86 17.328 50.86 11.792C50.86 5.68 53.356 3.824 56.236 3.824C58.156 3.824 59.18 4.656 60.556 6.48L62.156 5.2C61.036 3.184 58.636 1.872 56.268 1.84C53.356 1.808 48.556 3.664 48.652 12.272C48.652 18.32 51.596 22.32 56.364 22.32ZM71.5 22.352C76.076 22.352 78.636 18.672 78.636 12.144C78.636 5.84 76.076 1.936 71.5 1.936C66.924 1.936 64.364 5.84 64.364 12.144C64.364 18.672 66.924 22.352 71.5 22.352ZM71.5 20.4C68.46 20.4 66.668 17.456 66.668 12.144C66.668 7.12 68.46 3.888 71.5 3.888C74.54 3.888 76.332 7.12 76.332 12.144C76.332 17.456 74.54 20.4 71.5 20.4ZM104.62 22.352C106.668 22.352 108.46 21.584 109.9 20.048L108.556 18.48C107.5 19.664 106.22 20.272 104.748 20.272C101.804 20.272 99.66 17.84 99.66 14.544C99.66 11.184 101.868 9.04 104.332 9.04C106.22 9.04 107.404 9.616 108.652 11.248L110.124 9.808C108.94 8.112 106.956 7.088 104.588 7.088C100.364 7.088 97.292 10.32 97.292 14.704C97.292 19.12 100.364 22.352 104.62 22.352ZM119.5 22.256C123.468 22.256 126.252 19.12 126.252 14.672C126.252 10.224 123.468 7.056 119.5 7.056C115.532 7.056 112.748 10.224 112.748 14.672C112.748 19.12 115.532 22.256 119.5 22.256ZM119.5 20.336C116.972 20.336 115.18 17.968 115.18 14.64C115.18 11.312 116.972 8.976 119.5 8.976C122.028 8.976 123.82 11.312 123.82 14.64C123.82 17.968 122.028 20.336 119.5 20.336ZM128.716 22H130.828V12.24C130.828 10.064 132.012 8.784 132.94 8.784C134.156 8.784 134.54 9.392 134.54 11.824V22H136.684V12.336C136.684 10.672 137.804 8.72 139.02 8.72C139.788 8.72 140.396 8.976 140.396 11.632V22H142.508V10.768C142.604 8.624 141.676 7.024 139.692 7.024C138.252 7.024 136.94 7.888 136.396 9.168C136.14 7.92 135.084 7.024 133.804 7.024C132.652 7.024 131.5 7.76 130.828 8.816V7.376H128.716V22ZM144.716 22H146.828V12.24C146.828 10.064 148.012 8.784 148.94 8.784C150.156 8.784 150.54 9.392 150.54 11.824V22H152.684V12.336C152.684 10.672 153.804 8.72 155.02 8.72C155.788 8.72 156.396 8.976 156.396 11.632V22H158.508V10.768C158.604 8.624 157.676 7.024 155.692 7.024C154.252 7.024 152.94 7.888 152.396 9.168C152.14 7.92 151.084 7.024 149.804 7.024C148.652 7.024 147.5 7.76 146.828 8.816V7.376H144.716V22ZM166.252 22.352C167.948 22.352 170.124 21.904 171.244 19.76V22H173.74V14.224C173.74 8.72 171.18 7.056 167.308 7.056C165.292 7.056 163.468 7.728 162.092 9.104L163.212 10.576C164.332 9.488 165.74 8.944 167.148 8.944C169.964 8.944 171.468 10.032 171.724 13.424C170.508 13.264 169.42 13.232 168.428 13.232C164.396 13.232 161.068 15.184 161.068 18.32C161.068 20.688 162.924 22.352 166.252 22.352ZM163.372 18.192C163.372 15.92 165.548 14.96 168.62 14.96C169.58 14.96 170.7 15.024 171.724 15.184C171.532 18.672 169.612 20.592 166.476 20.592C164.716 20.592 163.372 20.016 163.372 18.192ZM177.804 22H180.044V13.584C180.044 10.8 182.412 9.04 184.364 9.04C185.868 9.04 187.052 10.128 187.052 13.2V22H189.292V13.136C189.292 8.72 187.404 7.024 185.004 7.024C183.02 7.024 181.164 8.176 180.044 9.968V7.376H177.804V22ZM198.988 22.32C200.876 22.32 202.348 21.296 203.276 19.728C203.276 20.496 203.276 21.232 203.596 22H205.868C205.548 21.232 205.548 20.496 205.548 19.728L205.516 0.719999H203.372V9.52C202.636 7.984 201.132 6.992 199.116 6.992C196.14 6.992 192.94 9.2 192.94 14.544C192.94 19.792 196.012 22.32 198.988 22.32ZM199.34 20.304C196.62 20.304 195.18 17.872 195.18 14.192C195.18 10.96 196.556 8.88 199.148 8.88C201.964 8.88 203.18 11.344 203.18 14.608C203.18 17.776 202.156 20.304 199.34 20.304ZM215.532 22.32C219.628 22.32 221.58 20.208 221.58 17.744C221.58 15.664 220.204 14.512 216.556 13.392C213.228 12.432 212.428 11.568 212.428 10.576C212.428 9.36 213.836 8.752 215.564 8.752C217.164 8.752 219.052 9.52 219.98 10.96L221.324 9.328C219.884 7.792 218.22 7.024 215.5 7.024C211.948 7.024 210.124 8.496 210.124 10.704C210.124 12.88 212.268 14.288 215.628 15.248C218.348 16.144 219.308 16.816 219.308 18.064C219.308 19.504 217.932 20.4 215.596 20.4C212.876 20.4 211.756 19.216 210.636 17.808L209.324 20.016C210.988 21.552 213.1 22.32 215.532 22.32Z" fill="white"/>
</svg>
