<svg width="175" height="28" viewBox="0 0 175 28" fill="none" xmlns="http://www.w3.org/2000/svg">
<path d="M3.744 22L0.544 2.064H2.624L4.768 15.536L7.968 3.536H8.672L11.904 15.6L13.728 2.064H15.616L12.448 22H11.584L8.16 8.976L4.672 22H3.744ZM19.2 22V20.144H22.944V9.232H19.392V7.376H25.248V20.144H28.672V22H19.2ZM23.968 4.304C23.52 4.304 23.136 4.144 22.816 3.824C22.496 3.504 22.336 3.12 22.336 2.672C22.336 2.20267 22.4853 1.808 22.784 1.488C23.104 1.168 23.4987 1.008 23.968 1.008C24.416 1.008 24.8 1.17867 25.12 1.52C25.4613 1.84 25.632 2.224 25.632 2.672C25.632 3.12 25.4613 3.504 25.12 3.824C24.8 4.144 24.416 4.304 23.968 4.304ZM38.368 14.672L36.448 16.464V22H34.112V0.719999H36.416H36.736V0.943998C36.608 1.072 36.5227 1.21067 36.48 1.36C36.4587 1.50933 36.448 1.76533 36.448 2.128V14.096L43.776 7.312C43.904 7.33333 44.032 7.35467 44.16 7.376C44.288 7.39733 44.416 7.41867 44.544 7.44C44.6933 7.44 44.8427 7.45067 44.992 7.472C45.1627 7.472 45.3227 7.472 45.472 7.472H46.304L40.16 13.264L47.328 22L44.352 22.128L38.368 14.672ZM51.2 22V20.144H54.944V9.232H51.392V7.376H57.248V20.144H60.672V22H51.2ZM55.968 4.304C55.52 4.304 55.136 4.144 54.816 3.824C54.496 3.504 54.336 3.12 54.336 2.672C54.336 2.20267 54.4853 1.808 54.784 1.488C55.104 1.168 55.4987 1.008 55.968 1.008C56.416 1.008 56.8 1.17867 57.12 1.52C57.4613 1.84 57.632 2.224 57.632 2.672C57.632 3.12 57.4613 3.504 57.12 3.824C56.8 4.144 56.416 4.304 55.968 4.304ZM87.584 22.128L80.8 2.032H83.136L88.256 17.36L93.088 2.064H95.296L88.608 22.128H87.584ZM102.752 22.352C101.088 22.352 99.808 21.9787 98.912 21.232C98.016 20.464 97.568 19.4933 97.568 18.32C97.568 17.5307 97.76 16.8267 98.144 16.208C98.528 15.568 99.0507 15.0347 99.712 14.608C100.395 14.16 101.184 13.8187 102.08 13.584C102.976 13.3493 103.925 13.232 104.928 13.232C105.291 13.232 105.653 13.2427 106.016 13.264C106.4 13.264 106.795 13.2853 107.2 13.328C107.627 13.3493 108.064 13.392 108.512 13.456L108.576 15.216C108.192 15.152 107.797 15.1093 107.392 15.088C107.008 15.0453 106.624 15.0133 106.24 14.992C105.856 14.9707 105.483 14.96 105.12 14.96C104.352 14.96 103.648 15.024 103.008 15.152C102.368 15.28 101.813 15.472 101.344 15.728C100.875 15.984 100.512 16.3147 100.256 16.72C100 17.1253 99.872 17.616 99.872 18.192C99.872 18.64 99.9467 19.024 100.096 19.344C100.267 19.6427 100.491 19.888 100.768 20.08C101.045 20.2507 101.365 20.3787 101.728 20.464C102.112 20.5493 102.528 20.592 102.976 20.592C103.808 20.592 104.544 20.464 105.184 20.208C105.845 19.9307 106.4 19.536 106.848 19.024C107.317 18.512 107.669 17.8827 107.904 17.136C108.139 16.3893 108.256 15.536 108.256 14.576C108.256 13.1253 108.085 11.9947 107.744 11.184C107.403 10.3733 106.891 9.79733 106.208 9.456C105.547 9.11467 104.693 8.944 103.648 8.944C102.944 8.944 102.251 9.08267 101.568 9.36C100.885 9.616 100.267 10.0213 99.712 10.576L98.592 9.104C99.2747 8.42133 100.064 7.90933 100.96 7.568C101.856 7.22667 102.805 7.056 103.808 7.056C104.768 7.056 105.643 7.17333 106.432 7.408C107.221 7.64267 107.893 8.03733 108.448 8.592C109.024 9.12533 109.461 9.85067 109.76 10.768C110.08 11.6853 110.24 12.8373 110.24 14.224V22H107.744V19.76C107.467 20.2933 107.125 20.7307 106.72 21.072C106.336 21.4133 105.92 21.68 105.472 21.872C105.024 22.0427 104.565 22.16 104.096 22.224C103.627 22.3093 103.179 22.352 102.752 22.352ZM114.528 22V20.144H118.848V2.576H114.72V0.719999H121.184V20.144H125.472V22H114.528ZM130.528 22V20.144H134.848V2.576H130.72V0.719999H137.184V20.144H141.472V22H130.528ZM152.704 22.32C151.637 22.32 150.667 22.16 149.792 21.84C148.917 21.4987 148.16 21.008 147.52 20.368C146.901 19.728 146.421 18.9387 146.08 18C145.739 17.04 145.568 15.952 145.568 14.736C145.568 13.4987 145.739 12.4 146.08 11.44C146.443 10.48 146.923 9.68 147.52 9.04C148.139 8.37867 148.853 7.87733 149.664 7.536C150.496 7.19467 151.371 7.024 152.288 7.024C153.12 7.024 153.899 7.16267 154.624 7.44C155.349 7.71733 155.979 8.144 156.512 8.72C157.045 9.27467 157.461 9.98933 157.76 10.864C158.08 11.7387 158.24 12.7733 158.24 13.968C158.24 14.1387 158.229 14.32 158.208 14.512C158.208 14.6827 158.197 14.8533 158.176 15.024H147.776C147.819 15.9627 147.979 16.784 148.256 17.488C148.533 18.1707 148.896 18.736 149.344 19.184C149.792 19.6107 150.304 19.9307 150.88 20.144C151.477 20.3573 152.107 20.464 152.768 20.464C153.28 20.464 153.76 20.4107 154.208 20.304C154.656 20.176 155.072 19.9947 155.456 19.76C155.861 19.504 156.224 19.1947 156.544 18.832L157.824 20.08C157.419 20.5707 156.949 20.9867 156.416 21.328C155.904 21.6693 155.339 21.9147 154.72 22.064C154.101 22.2347 153.429 22.32 152.704 22.32ZM147.872 13.232H155.904C155.904 12.5493 155.808 11.9413 155.616 11.408C155.445 10.8533 155.189 10.384 154.848 10C154.528 9.59467 154.133 9.296 153.664 9.104C153.216 8.89067 152.704 8.784 152.128 8.784C151.616 8.784 151.125 8.86933 150.656 9.04C150.208 9.21067 149.792 9.488 149.408 9.872C149.024 10.2347 148.693 10.6933 148.416 11.248C148.16 11.8027 147.979 12.464 147.872 13.232ZM164.064 27.568C163.381 27.568 162.752 27.4613 162.176 27.248C161.621 27.0347 161.131 26.7253 160.704 26.32L161.696 24.752L161.888 24.464L162.08 24.592C162.123 24.7627 162.197 24.9013 162.304 25.008C162.411 25.136 162.613 25.296 162.912 25.488C163.104 25.552 163.307 25.5947 163.52 25.616C163.733 25.6587 163.957 25.68 164.192 25.68C164.768 25.68 165.248 25.5413 165.632 25.264C166.037 24.9867 166.389 24.56 166.688 23.984C166.987 23.408 167.275 22.6827 167.552 21.808L170.336 13.2C170.656 12.2187 170.965 11.248 171.264 10.288C171.563 9.328 171.765 8.35733 171.872 7.376H174.176C174.027 8.35733 173.792 9.34933 173.472 10.352C173.152 11.3547 172.811 12.3573 172.448 13.36L168.8 23.664C168.288 25.0933 167.627 26.096 166.816 26.672C166.027 27.2693 165.109 27.568 164.064 27.568ZM161.472 7.376H163.872L168.608 19.568L167.584 22.416L161.472 7.376Z" fill="black"/>
</svg>
